PathFileType	4	(X/Y/Z)	41_2_82_p0_0-409.trc
DataRate	CameraRate	NumFrames	NumMarkers	Units	OrigDataRate	OrigDataStartFrame	OrigNumFrames
59.0	59.0	6	27	m	59.0	205	410
Frame#	Time	RHip			RKnee			RAnkle			RBigToe			RSmallToe			RHeel			LHip			LKnee			LAnkle			LBigToe			LSmallToe			LHeel			Neck			Head			Nose			RShoulder			RElbow			RWrist			RThumb			RIndex			RPinky			LShoulder			LElbow			LWrist			LThumb			LIndex			LPinky			
		X1	Y1	Z1	X2	Y2	Z2	X3	Y3	Z3	X4	Y4	Z4	X5	Y5	Z5	X6	Y6	Z6	X7	Y7	Z7	X8	Y8	Z8	X9	Y9	Z9	X10	Y10	Z10	X11	Y11	Z11	X12	Y12	Z12	X13	Y13	Z13	X14	Y14	Z14	X15	Y15	Z15	X16	Y16	Z16	X17	Y17	Z17	X18	Y18	Z18	X19	Y19	Z19	X20	Y20	Z20	X21	Y21	Z21	X22	Y22	Z22	X23	Y23	Z23	X24	Y24	Z24	X25	Y25	Z25	X26	Y26	Z26	X27	Y27	Z27	
205	3.4745762711864407	0.39283600409767255	0.5001761464707556	-0.0580505308215263	0.39785849495740944	0.6284086609092533	0.37503240541420974	0.37655407904181143	0.7151942530318236	0.7319904308122336	0.3655211203716975	0.5479543865062484	0.7574334280947131	0.4309970112500412	0.5656118380521484	0.7535840371203308	0.34560744657804643	0.7729416615017606	0.7816980281699434	0.2007264601768218	0.543952056972917	-0.04279842901201384	0.1756580385453911	0.6407776980942725	0.3775893319320032	0.17851581218597348	0.6972026913507677	0.7317407138518179	0.19132835914571822	0.5018738100395583	0.730167368429931	0.14222835792730912	0.5683904378554654	0.7490329831253005	0.19410704021868605	0.7417819869452226	0.7834632620287892	0.27750171070545343	0.5157002860357135	-0.5638572276023185	0.27134954990525567	0.49148861706524294	-0.8008469350575734	0.2685941708856028	0.35908400064362783	-0.6828946025265209	0.42884372269305476	0.5188881888552771	-0.45608548940898125	0.4543490227768312	0.44656475223201975	-0.24665453015420502	0.3806496459762439	0.31055882916455296	-0.11919835589040202	0.25839244074852147	0.2572436535125245	-0.07772833574241596	0.25429074513489625	0.26836099855671897	-0.0449583492072097	0.2953817783667547	0.3057982964759492	-0.024268456320062345	0.12706116723567218	0.4997769071411825	-0.47167874599539855	0.11980871376886773	0.45762711512984416	-0.252349874739127	0.2123727286063873	0.3309908763339844	-0.11427379152175317	0.27351305303270446	0.29377618278635853	-0.09187953707029772	0.2918930279986752	0.3044861114283176	-0.05149573247798132	0.270609767811629	0.30374646666407595	-0.03458011416912012
206	3.4915254237288136	0.3928793201589484	0.500065780415756	-0.05800081393141357	0.3977406438039459	0.6283585806011943	0.3751292987366335	0.37467549360287133	0.7139291900667409	0.7311209312957796	0.3655005190310453	0.5477523254362616	0.7573079571512883	0.4265549588777607	0.5528278991643913	0.7470805955003064	0.3504979673533815	0.7856760747281262	0.7931355960239874	0.2015949419609582	0.5454988214102525	-0.03852645564400626	0.17573660061690505	0.640766722159201	0.37765572116679047	0.17855790418870646	0.6970424553601295	0.7316906884532389	0.19134482838536918	0.5016894690007515	0.7301209064658734	0.14231638836659133	0.5682311759255737	0.7488958483665821	0.19397533828784863	0.7410246502865286	0.7832145628034287	0.27781937914105576	0.5153773066079701	-0.5601833369961303	0.27139913365394547	0.49140812582121496	-0.8008224314337723	0.2686662614258702	0.35915434260267337	-0.6829044100083181	0.42903489760171293	0.519205771874723	-0.4560217006400869	0.454443404361451	0.4466254794061811	-0.24681095271859824	0.37782894695245317	0.32274669157643154	-0.11593995891951239	0.2584763873352866	0.2565317293529349	-0.07444571525229517	0.25424254735685836	0.26840242583849333	-0.044904111195616436	0.2953403176810659	0.30596416071588106	-0.024392967833130615	0.12713481598467072	0.49957790855913636	-0.4716687192141683	0.11995387535348016	0.45952168444173364	-0.25199663085121904	0.21221843390188516	0.3306806502313856	-0.11432072054506963	0.27584647160311226	0.2807114962451212	-0.09828507718530873	0.2918387404439958	0.3044783066579389	-0.05145814528072437	0.27061791892771314	0.3041295801103861	-0.03456188599167842
207	3.5084745762711864	0.3928602869417288	0.5001116974792943	-0.058028168821904993	0.39773478573961957	0.6282146675079516	0.3749401763916532	0.3711526522646833	0.7008467322126385	0.7294339427752785	0.36550382356468103	0.5477082604181979	0.7572454487854032	0.4264086512007522	0.5522021056624038	0.7468900487034812	0.3451218218544548	0.7718585964114878	0.7914013715847265	0.20149223376034595	0.5453681843605781	-0.038359983754863304	0.1757758705993586	0.6408620486491869	0.3777664509504394	0.17894975722868245	0.6955302223894575	0.73542574039684	0.19135216320724155	0.501724619410497	0.7300714002898364	0.1423785166669726	0.5681810544253622	0.7488129040381358	0.19876650902448528	0.7441815953394958	0.7846491097819026	0.2808118084580169	0.5033025914829681	-0.5648409708606278	0.2714816228042093	0.49136963718165433	-0.8007496151069218	0.2748517974180247	0.35914416049585096	-0.6867342931203219	0.42906728091735963	0.5191208510326267	-0.45604194826803873	0.454359899494745	0.44642805104112215	-0.2466497448434707	0.36914418834455914	0.3112493623851522	-0.11491187119060468	0.2539021123096349	0.2673963632153076	-0.07859094002291284	0.2539460356259804	0.26865898479609424	-0.045038226746449944	0.2912544109444478	0.305561320357609	-0.024255104830153643	0.1313437160054143	0.5003789133573815	-0.4718741182442558	0.11992304882686244	0.45955644561851394	-0.2520079279449169	0.21189645480361297	0.33036629194022854	-0.11432121628339857	0.26765992575104464	0.2689032373334783	-0.1045148852005953	0.2868156863684996	0.3017975156534225	-0.05553314659764869	0.2701035489482744	0.3035008902003019	-0.03469438671042123
208	3.5254237288135593	0.3892073038942687	0.4894059764813596	-0.05691364429785929	0.39761284157790255	0.6281471470982526	0.37512931938834243	0.3718830704336291	0.7002086421815524	0.7249894978159137	0.36559554240162434	0.5480144325828747	0.7573008952963031	0.4266640684511194	0.5530751066179191	0.7472154227657923	0.3455519247210989	0.7727526518156753	0.7817116054828899	0.2022266042369225	0.5465756321411516	-0.033918155920648424	0.1758014631968603	0.6409211441811012	0.37800101679880693	0.1780154571979125	0.696547338990276	0.7403997319015756	0.19133655921528067	0.5017613425020293	0.7301594107888257	0.14230223394678812	0.5681901466065786	0.748911558463452	0.19863995255597838	0.7439607120197517	0.7845605194190565	0.2810946347137202	0.5030346763574697	-0.5613091121266763	0.2714906313166676	0.491180396570182	-0.8007090035026622	0.27488809213432835	0.35906641300631087	-0.6867297986422388	0.4291051678988165	0.5193248491907814	-0.45599134311953365	0.4584086505311408	0.4470828091081208	-0.24673853861300538	0.36838790311936587	0.31020476774088085	-0.11877399377907694	0.2572215783900441	0.27775680770570726	-0.07610771416102782	0.2570800409507803	0.27926433975531145	-0.042170667987396	0.2911678925218209	0.3055674196693546	-0.02425495441964805	0.13139950120764754	0.5004987842978412	-0.4719016145462837	0.11984867000876433	0.4596281401630908	-0.25205941773459856	0.21170953502832715	0.33019868151572324	-0.11432861913830586	0.2636830953074399	0.2796753225783415	-0.10462651225472422	0.28294100507933717	0.30077353434966253	-0.05579206400350097	0.26636232836771967	0.3029518413004026	-0.034865723116676045
209	3.542372881355932	0.3899935359209262	0.4905379395543914	-0.05292111686432917	0.39749964836271184	0.6282416411216913	0.3756663402144809	0.37184678804500204	0.7003232006280045	0.7250416955138549	0.36103976270060845	0.5347746635299436	0.750803149503025	0.42615672936031124	0.5516865772944809	0.7468310442858438	0.34554541100949376	0.7727654798695506	0.7817805009244887	0.2018813332266585	0.5472060562056718	-0.03696312337874157	0.17585098242696212	0.6408226668863655	0.3782093190022535	0.17872579609093148	0.7001824011920853	0.7426416223415617	0.19132724450086844	0.5016922307501681	0.7301480408668296	0.14269072342866723	0.5666731351573728	0.7526124802986711	0.19398952042021295	0.7408638170567204	0.782990881938442	0.2849977907357973	0.5034709168296144	-0.5614968444389261	0.27155881054091996	0.4909941887163586	-0.8007134322391416	0.27494168716955647	0.35914485612415536	-0.6867231588758751	0.42923708385613957	0.5188752222150763	-0.45606569879470393	0.4543169264632345	0.4463528328091495	-0.24656005256310845	0.3641265007866671	0.3094403961298626	-0.11877595387159323	0.24945242490159159	0.25720425396054425	-0.07790106628361153	0.25350452990002703	0.26836613543306165	-0.045099585909576495	0.2910891672814432	0.3052373819388836	-0.024111449273855362	0.13148754490703848	0.5005571797854244	-0.47197719305379005	0.11585023310266356	0.4729028207299546	-0.24941440670095708	0.20765765536454722	0.3296984621511927	-0.11405516802844318	0.25659120202662106	0.2685633053702492	-0.10464467239410401	0.27516342338723904	0.30140751995573306	-0.05132909016862624	0.2587676389584537	0.3033909064857898	-0.03434400875062953
210	3.559322033898305	0.3898999682063018	0.49037456932491347	-0.05294260849919082	0.39748828342142667	0.628181605136955	0.37548752321169804	0.37182112643812554	0.7002530524555204	0.7249787359129538	0.36113638343845755	0.5347851208131128	0.7505614575360922	0.4262331937372319	0.5515613078638673	0.7466291938973108	0.3455500490686436	0.7726369135971313	0.7816572525149504	0.20194489956665695	0.5472646858943414	-0.036977380811745196	0.17585390574506096	0.6408977726427018	0.37820776231775627	0.17964584745758902	0.6992777633379482	0.737789633971908	0.19129655416956065	0.501492594327233	0.7300189961018948	0.14226544373650965	0.5681392928828466	0.7488508320712282	0.1986727927774873	0.7436108722041123	0.7843095779712282	0.28505404657908057	0.5034886106552365	-0.5615452842652308	0.27159577187972556	0.49089221882203316	-0.8007671225922941	0.2785304729593161	0.3705853088446	-0.6863720522300698	0.4325750133326213	0.5064671904825171	-0.4539391144831735	0.4584379274306834	0.4470051937167052	-0.24672740318833553	0.3640413725977173	0.3092122264244537	-0.11890124791746211	0.24973086414679108	0.2569601914451282	-0.08128125198282866	0.25023548222073794	0.25813046104515674	-0.04785466935138522	0.2912100195360437	0.30557525647774225	-0.023974605288513317	0.13483644991995034	0.5133277333654481	-0.4708035401659534	0.1197698742927772	0.4601356928804062	-0.25201771303622894	0.207220893890866	0.3295373524679362	-0.11398456367873296	0.2569551076047534	0.26956692920119874	-0.10191048566783963	0.2705624178165584	0.29937883959215766	-0.051549703185163734	0.2580525809120409	0.3027090443314314	-0.034591620728263064
